<svg width="1920" height="1024" viewBox="0 0 1920 1024" fill="none" xmlns="http://www.w3.org/2000/svg">
<rect width="1920" height="1024" fill="#B7DBD7"/>
<path d="M621.861 221.23C365.708 319.391 113.431 350.077 0 361.605V-0.695572H1388.95C1150.51 42.1218 804.879 151.096 621.861 221.23Z" fill="#EFE4CA"/>
<path d="M1920 673.901C1716.68 710.061 1312.35 907.3 1185.27 1024H1920V673.901Z" fill="#EFE4CA"/>
<path d="M1920 529.312C1579.95 585.263 855.904 851.857 599.133 1023.83H109.88C286.843 948.95 548.241 815.653 703.229 759.701C858.217 703.75 1109.73 636.278 1094.17 575.39C1078.61 514.501 761.06 591.846 580.626 636.278C384.345 684.613 127.229 713.623 0 759.701V537.54C446.674 537.54 724.048 435.555 1029.4 389.432C1299.59 348.62 1709.49 345 1920 345V529.312Z" fill="#EFE4CA"/>
</svg>
