<svg xmlns="http://www.w3.org/2000/svg" width="100" height="100" viewBox="0 0 100 100" fill="none">
<rect x="0.5" y="0.5" width="99" height="99" fill="#345F12" stroke="#22211F"/>
<path fill-rule="evenodd" clip-rule="evenodd" d="M57.337 41.8086C58.8707 43.3986 61.4029 43.4442 62.9929 41.9105C64.5829 40.3768 64.6286 37.8446 63.0949 36.2546L54.8696 27.7273L63.9782 18.9413C65.5682 17.4076 65.6139 14.8753 64.0802 13.2853C62.5465 11.6953 60.0142 11.6497 58.4242 13.1834L49.3156 21.9694L40.8789 13.223C39.3453 11.633 36.813 11.5874 35.223 13.1211C33.633 14.6547 33.5874 17.187 35.1211 18.777L43.5577 27.5234L35.3927 35.3993C33.8027 36.933 33.757 39.4652 35.2907 41.0552C36.8244 42.6452 39.3567 42.6909 40.9467 41.1572L49.1117 33.2813L57.337 41.8086Z" fill="#22211F"/>
<path fill-rule="evenodd" clip-rule="evenodd" d="M57.337 86.8086C58.8707 88.3986 61.4029 88.4442 62.9929 86.9105C64.5829 85.3768 64.6286 82.8446 63.0949 81.2546L54.8694 72.7272L63.978 63.9412C65.568 62.4075 65.6136 59.8753 64.0799 58.2853C62.5462 56.6953 60.014 56.6496 58.424 58.1833L49.3155 66.9693L40.8789 58.223C39.3453 56.633 36.813 56.5874 35.223 58.1211C33.633 59.6547 33.5874 62.187 35.1211 63.777L43.5576 72.5232L35.3924 80.3992C33.8024 81.9329 33.7568 84.4652 35.2905 86.0552C36.8242 87.6452 39.3564 87.6908 40.9464 86.1571L49.1116 78.2811L57.337 86.8086Z" fill="#22211F"/>
</svg>
