<svg width="38" height="38" viewBox="0 0 38 38" fill="none" xmlns="http://www.w3.org/2000/svg">
<path fill-rule="evenodd" clip-rule="evenodd" d="M31.0324 33.7052C35.2858 30.2208 38 24.9274 38 19C38 8.50659 29.4934 0 19 0C8.50659 0 0 8.50659 0 19C0 24.8677 2.65986 30.1142 6.83963 33.5994C7.23091 28.5759 11.3868 24.625 16.4589 24.625H21.4054C26.5131 24.625 30.6916 28.6315 31.0324 33.7052ZM23.8305 19.9497C22.5313 21.2625 20.7694 22 18.9322 22C17.0949 22 15.333 21.2625 14.0339 19.9497C12.7348 18.637 12.0049 16.8565 12.0049 15C12.0049 13.1435 12.7348 11.363 14.0339 10.0503C15.333 8.7375 17.0949 8 18.9322 8C20.7694 8 22.5313 8.7375 23.8305 10.0503C25.1296 11.363 25.8594 13.1435 25.8594 15C25.8594 16.8565 25.1296 18.637 23.8305 19.9497Z" fill="#393834"/>
</svg>
