<svg width="40" height="40" viewBox="0 0 40 40" fill="none" xmlns="http://www.w3.org/2000/svg">
<path d="M20 40C25.3043 40 30.3914 37.8929 34.1421 34.1421C37.8929 30.3914 40 25.3043 40 20C40 14.6957 37.8929 9.60859 34.1421 5.85786C30.3914 2.10714 25.3043 0 20 0C14.6957 0 9.60859 2.10714 5.85786 5.85786C2.10714 9.60859 0 14.6957 0 20C0 25.3043 2.10714 30.3914 5.85786 34.1421C9.60859 37.8929 14.6957 40 20 40ZM16.875 26.25H18.75V21.25H16.875C15.8359 21.25 15 20.4141 15 19.375C15 18.3359 15.8359 17.5 16.875 17.5H20.625C21.6641 17.5 22.5 18.3359 22.5 19.375V26.25H23.125C24.1641 26.25 25 27.0859 25 28.125C25 29.1641 24.1641 30 23.125 30H16.875C15.8359 30 15 29.1641 15 28.125C15 27.0859 15.8359 26.25 16.875 26.25ZM20 10C20.663 10 21.2989 10.2634 21.7678 10.7322C22.2366 11.2011 22.5 11.837 22.5 12.5C22.5 13.163 22.2366 13.7989 21.7678 14.2678C21.2989 14.7366 20.663 15 20 15C19.337 15 18.7011 14.7366 18.2322 14.2678C17.7634 13.7989 17.5 13.163 17.5 12.5C17.5 11.837 17.7634 11.2011 18.2322 10.7322C18.7011 10.2634 19.337 10 20 10Z" fill="#F1EBDD"/>
</svg>
